<svg width="24" height="24" xmlns="http://www.w3.org/2000/svg" viewBox="0 0 24 24">
    <title>Email</title>
    <path d="m21.5,3.15l-19.01,0c-1.31,0 -2.36,0.98 -2.36,2.18l-0.01,13.09c0,1.2 1.07,2.18 2.38,2.18l19.01,0c1.31,0 
     2.38,-0.98 2.38,-2.18l0,-13.09c0,-1.2 -1.07,-2.18 -2.38,-2.18zm-0.48,4.64l-8.4,4.82c-0.38,0.22 -0.88,0.22 
     -1.26,0l-8.4,-4.82c-0.3,-0.17 -0.48,-0.47 -0.48,-0.79c0,-0.73 0.87,-1.17 
     1.54,-0.79l7.96,4.57l7.96,-4.57c0.68,-0.38 1.54,0.05 1.54,0.79c0,0.32 -0.18,0.61 -0.48,0.79z" id="svg_2" />
</svg>